<svg viewBox="140 115 432 155" xmlns="http://www.w3.org/2000/svg">
  <defs>
    <mask id="creamStrokeMask" maskUnits="userSpaceOnUse" x="140" y="115" width="432" height="155">
      <rect x="140" y="115" width="432" height="155" fill="#FFFFFF"/>
      <circle cx="200" cy="175" r="34" fill="#000000"/>
    </mask>
  </defs>
  <circle cx="200" cy="175" r="34" fill="#E8734A"/>
  <circle cx="258" cy="168" r="29" fill="#F2A65A"/>
  <circle cx="198" cy="221" r="25" fill="#F2EDE1"/>
  <circle cx="198" cy="221" r="25" fill="none" stroke="#163B3E" stroke-opacity="0.35" stroke-width="1.25" mask="url(#creamStrokeMask)"/>
  <circle cx="250" cy="219" r="19" fill="#B5542D"/>
  <g transform="translate(308.242,219.488) scale(0.07800000,-0.07800000)" fill="#163B3E">
    <path transform="translate(0,0)" d="M445 700H562Q567 700 570.5 696.5Q574 693 574 688V12Q574 7 570.5 3.5Q567 0 562 0H445Q440 0 436.5 3.5Q433 7 433 12V288Q433 293 428 293H207Q202 293 202 288V12Q202 7 198.5 3.5Q195 0 190 0H73Q68 0 64.5 3.5Q61 7 61 12V688Q61 693 64.5 696.5Q68 700 73 700H190Q195 700 198.5 696.5Q202 693 202 688V419Q202 414 207 414H428Q433 414 433 419V688Q433 693 436.5 696.5Q440 700 445 700Z"/>
    <path transform="translate(628,0)" d="M364 514H481Q486 514 489.5 510.5Q493 507 493 502V12Q493 7 489.5 3.5Q486 0 481 0H364Q359 0 355.5 3.5Q352 7 352 12V46Q352 49 350.0 49.5Q348 50 346 47Q306 -7 222 -7Q146 -7 97.0 39.0Q48 85 48 168V502Q48 507 51.5 510.5Q55 514 60 514H176Q181 514 184.5 510.5Q188 507 188 502V203Q188 163 209.5 138.0Q231 113 269 113Q303 113 325.0 133.5Q347 154 352 187V502Q352 507 355.5 510.5Q359 514 364 514Z"/>
    <path transform="translate(1173,0)" d="M383 700H500Q505 700 508.5 696.5Q512 693 512 688V12Q512 7 508.5 3.5Q505 0 500 0H383Q378 0 374.5 3.5Q371 7 371 12V45Q371 48 369.0 48.5Q367 49 365 47Q323 -8 250 -8Q180 -8 129.5 31.0Q79 70 57 138Q40 190 40 259Q40 330 58 383Q81 447 130.5 484.5Q180 522 253 522Q325 522 365 472Q367 469 369.0 470.0Q371 471 371 474V688Q371 693 374.5 696.5Q378 700 383 700ZM370 257Q370 324 348 362Q325 401 281 401Q234 401 210 362Q185 323 185 256Q185 196 206 156Q231 113 280 113Q325 113 350 156Q370 193 370 257Z"/>
    <path transform="translate(1739,0)" d="M383 700H500Q505 700 508.5 696.5Q512 693 512 688V12Q512 7 508.5 3.5Q505 0 500 0H383Q378 0 374.5 3.5Q371 7 371 12V45Q371 48 369.0 48.5Q367 49 365 47Q323 -8 250 -8Q180 -8 129.5 31.0Q79 70 57 138Q40 190 40 259Q40 330 58 383Q81 447 130.5 484.5Q180 522 253 522Q325 522 365 472Q367 469 369.0 470.0Q371 471 371 474V688Q371 693 374.5 696.5Q378 700 383 700ZM370 257Q370 324 348 362Q325 401 281 401Q234 401 210 362Q185 323 185 256Q185 196 206 156Q231 113 280 113Q325 113 350 156Q370 193 370 257Z"/>
    <path transform="translate(2305,0)" d="M52 12V688Q52 693 55.5 696.5Q59 700 64 700H181Q186 700 189.5 696.5Q193 693 193 688V12Q193 7 189.5 3.5Q186 0 181 0H64Q59 0 55.5 3.5Q52 7 52 12Z"/>
    <path transform="translate(2549,0)" d="M511 225Q510 213 498 213H189Q183 213 185 208Q188 188 196 168Q222 112 302 112Q366 113 403 164Q407 170 412 170Q415 170 419 166L491 95Q496 90 496 86Q496 84 492 78Q459 37 407.0 14.5Q355 -8 293 -8Q207 -8 147.5 31.0Q88 70 62 140Q41 190 41 271Q41 326 56 368Q79 439 136.5 481.0Q194 523 273 523Q373 523 433.5 465.0Q494 407 507 310Q513 272 511 225ZM191 342Q187 329 184 310Q184 305 189 305H362Q368 305 366 310Q361 339 361 338Q352 368 329.5 384.5Q307 401 274 401Q211 401 191 342Z"/>
  </g>
</svg>
